<svg width="50" height="50" viewBox="0 0 50 50" fill="none" xmlns="http://www.w3.org/2000/svg">
<path d="M43.75 8.33325H6.25004C5.14497 8.33325 4.08516 8.77224 3.30376 9.55364C2.52236 10.335 2.08337 11.3948 2.08337 12.4999V39.5833C2.08337 40.6883 2.52236 41.7481 3.30376 42.5295C4.08516 43.3109 5.14497 43.7499 6.25004 43.7499H43.75C44.8551 43.7499 45.9149 43.3109 46.6963 42.5295C47.4777 41.7481 47.9167 40.6883 47.9167 39.5833V12.4999C47.9167 11.3948 47.4777 10.335 46.6963 9.55364C45.9149 8.77224 44.8551 8.33325 43.75 8.33325V8.33325ZM6.25004 39.5833V12.4999H22.9167V39.5833H6.25004ZM43.75 39.5833H27.0834V12.4999H43.75V39.5833ZM29.1667 19.7916H41.6667V22.9166H29.1667V19.7916ZM29.1667 24.9999H41.6667V28.1249H29.1667V24.9999ZM29.1667 30.2083H41.6667V33.3333H29.1667V30.2083Z" fill="#383838"/>
</svg>
