<svg width="50" height="50" viewBox="0 0 50 50" fill="none" xmlns="http://www.w3.org/2000/svg">
<path d="M25 45.8334C13.4937 45.8334 4.16663 36.5063 4.16663 25.0001C4.16663 13.4938 13.4937 4.16675 25 4.16675C36.5062 4.16675 45.8333 13.4938 45.8333 25.0001C45.8333 36.5063 36.5062 45.8334 25 45.8334ZM38.2395 33.2334V33.0147C38.2395 31.0938 38.2395 30.2167 36.8812 29.4397C36.4446 29.1922 35.9962 28.9662 35.5375 28.7626C34.7729 28.4147 34.2666 28.1876 33.5833 27.1876C33.5017 27.0688 33.4212 26.9494 33.3416 26.8293C32.6229 25.7355 32.1041 24.948 30.1291 25.2605C26.2437 25.8772 25.9562 26.5605 25.7854 27.7147L25.7583 27.9042C25.5062 29.5918 25.4604 30.1584 26.1645 30.898C28.8 33.6626 30.3791 35.6563 30.8583 36.823C31.0916 37.3917 31.6916 39.1147 31.2791 40.8188C33.8079 39.8116 36.0589 38.2136 37.8437 36.1584C38.0729 35.3793 38.2395 34.4084 38.2395 33.2334V33.2334ZM25 7.9855C20.1729 7.9855 15.8125 9.998 12.7166 13.2272C13.0854 13.4834 13.4062 13.8438 13.627 14.3397C14.052 15.2917 14.052 16.273 14.052 17.1417C14.052 17.8251 14.052 18.4751 14.2708 18.9438C14.5708 19.5855 15.8666 19.8605 17.0104 20.098C17.4208 20.1855 17.8416 20.273 18.225 20.3792C19.2791 20.6709 20.0958 21.6188 20.7479 22.3792C21.0187 22.6938 21.4208 23.1584 21.6229 23.2751C21.727 23.2001 22.0625 22.8355 22.227 22.2376C22.3562 21.7792 22.3187 21.3751 22.1333 21.1542C20.9666 19.7792 21.0312 17.1334 21.3916 16.1563C21.9583 14.6167 23.7291 14.7313 25.025 14.8147C25.5083 14.8459 25.9625 14.8772 26.3041 14.8334C27.6 14.6709 28 12.698 28.2812 12.3126C28.8895 11.4792 30.752 10.223 31.9062 9.448C29.7322 8.48132 27.3792 7.98302 25 7.9855V7.9855Z" fill="#383838"/>
</svg>
